<svg version="1.1" id="Layer_1" xmlns="http://www.w3.org/2000/svg" xmlns:xlink="http://www.w3.org/1999/xlink" x="0px" y="0px"
	 width="100%" viewBox="0 0 387 140" enable-background="new 0 0 387 140" xml:space="preserve">
<path fill="#363298" opacity="1.000000" stroke="none" 
	d="
M115.915710,107.123375 
	C114.836433,107.688530 113.757156,108.253685 111.967194,108.916359 
	C100.843559,111.913292 90.736252,111.602089 83.542213,102.634766 
	C79.813072,97.986404 78.210167,91.632263 75.396553,85.503906 
	C74.565414,86.531242 72.220581,88.247467 72.488655,89.295128 
	C73.942017,94.975182 76.041153,100.490005 77.917847,106.061737 
	C78.414413,109.655228 79.059555,113.236778 79.349480,116.846863 
	C79.512451,118.876129 79.088715,120.952507 78.128189,123.044266 
	C71.478012,124.928726 65.649895,126.847931 59.765293,128.574677 
	C58.277546,129.011246 56.609547,128.833542 54.985298,128.578720 
	C46.664585,109.767349 38.327042,91.340034 30.158638,72.838051 
	C28.860146,69.896873 27.602345,69.152275 25.081217,71.362305 
	C24.403933,71.956017 23.540691,72.337593 22.854109,72.760338 
	C17.087496,63.292839 11.498397,54.116779 6.064781,44.625168 
	C11.132430,41.503773 16.044594,38.697933 21.153187,36.165260 
	C22.218678,35.919514 23.087742,35.400597 24.124680,34.563499 
	C27.515938,33.124271 30.739321,32.003223 34.037613,31.260838 
	C35.042870,31.987062 35.973217,32.334629 36.903561,32.682198 
	C37.134090,31.835926 37.364616,30.989653 37.648144,30.111694 
	C37.701141,30.080006 37.815735,30.033960 38.052132,29.952427 
	C38.598011,29.716316 38.829006,29.483789 39.348885,29.100273 
	C40.463280,28.982525 41.210297,28.937811 42.139091,29.158939 
	C43.213974,29.004940 44.107079,28.585102 45.428291,28.093369 
	C52.910355,28.071833 59.964310,28.122190 67.151642,28.364723 
	C67.516441,28.784084 67.792931,28.918768 68.500412,28.978003 
	C84.649155,33.711906 92.588028,44.005005 91.138107,59.556011 
	C97.843948,58.340240 104.380058,57.155239 111.273987,56.117874 
	C113.474281,56.547432 115.316765,56.829353 117.381142,57.145229 
	C117.157227,54.519348 116.993347,52.597446 116.812599,50.477718 
	C115.230324,50.562546 113.873474,50.635288 111.468330,50.764233 
	C111.300255,44.615067 111.140572,38.772533 111.153389,32.587036 
	C122.055847,28.901712 132.785797,25.559353 143.460617,22.234173 
	C144.010849,23.271189 144.512024,24.215723 144.830399,25.500757 
	C144.401962,28.196873 144.156326,30.552486 143.910690,32.908104 
	C144.468811,33.026131 145.026932,33.144157 145.585052,33.262184 
	C146.684296,29.814341 147.783539,26.366497 149.057724,22.598064 
	C150.276672,22.475403 151.608627,22.330168 152.318741,22.926016 
	C157.597473,27.355312 162.937134,31.741663 167.877304,36.533623 
	C170.809464,39.377823 173.229736,39.955284 176.492371,36.937645 
	C178.467224,35.939686 180.105804,34.958721 181.663483,34.026196 
	C180.606262,32.099068 179.761627,30.559439 178.972839,28.672817 
	C184.802582,21.607428 190.650101,14.950042 196.301056,8.129785 
	C197.803360,6.316621 198.702393,4.003635 199.925461,1.692303 
	C199.972504,1.464468 200.000000,1.000000 200.000000,1.000000 
	C201.066666,1.000000 202.133347,1.000000 203.692596,1.342775 
	C207.193054,6.656622 209.731537,12.006140 213.345428,16.488626 
	C216.724167,20.679436 214.111771,22.215235 211.250488,23.901400 
	C207.189774,26.294397 202.964127,28.407534 198.352737,30.885410 
	C203.458801,32.388927 207.686951,33.633938 212.055450,35.196156 
	C214.565369,37.487564 216.934952,39.461769 219.590271,41.674038 
	C220.421326,35.512497 221.186615,29.838573 222.418365,24.091154 
	C232.368515,24.683546 241.966019,24.661423 251.304230,26.206528 
	C260.868927,27.789106 269.474426,32.085079 276.178131,39.615368 
	C281.074036,45.114948 282.626434,51.744171 283.329071,58.977493 
	C287.351746,58.977493 291.150696,58.977493 295.345703,58.987816 
	C306.473602,58.224373 311.646210,67.147125 319.196686,72.341393 
	C317.082703,64.694939 311.010284,59.792210 306.946228,53.392532 
	C304.761780,53.930275 302.730957,54.430202 299.902435,55.126499 
	C299.582672,51.986816 299.363586,49.250404 299.008453,46.531769 
	C298.719055,44.316418 298.266876,42.122341 298.033936,39.577469 
	C307.273407,35.811661 316.365845,32.387211 325.343048,29.006161 
	C329.713013,35.872021 333.866425,42.397610 338.143372,49.234787 
	C339.341766,49.708515 340.887756,50.412235 341.419403,49.949806 
	C347.353485,44.788425 353.130951,39.447037 359.313293,34.073624 
	C360.343536,34.414486 361.271851,34.677910 361.637909,35.282024 
	C364.823212,40.539230 367.939667,45.839066 371.012848,51.162994 
	C373.876465,56.123760 376.662231,61.129452 379.487030,66.123848 
	C371.592957,70.470955 364.419617,74.421158 356.858490,78.584923 
	C364.110046,84.849167 371.142273,90.972672 378.233276,97.027412 
	C381.428467,99.755653 384.740784,102.346710 388.000000,105.000000 
	C388.000000,107.041664 388.000000,109.083336 387.632751,111.711945 
	C385.203064,120.539383 383.140564,128.779892 380.765686,136.891754 
	C366.335785,123.603813 352.218323,110.444504 338.100861,97.285194 
	C338.568085,96.677124 339.035278,96.069054 339.502502,95.460983 
	C338.344238,97.010834 337.185974,98.560684 336.027710,100.110527 
	C332.258636,105.005379 328.489594,109.900230 324.090729,114.778336 
	C320.520721,111.417854 317.580505,108.074120 313.955688,103.951859 
	C314.775360,107.033951 315.718842,109.079048 315.722290,111.125748 
	C315.724609,112.477859 314.669373,114.685608 313.588806,115.056358 
	C299.570770,119.866013 286.323212,117.538696 273.777283,110.125816 
	C271.720551,108.910561 269.820007,107.430946 267.847290,106.073502 
	C267.847290,106.073502 267.937378,106.057121 267.958801,105.769806 
	C267.600830,104.989319 267.221466,104.496140 266.842072,104.002960 
	C266.842072,104.002968 267.007751,104.013680 266.843231,103.800430 
	C265.930420,103.646454 264.962036,103.421982 264.466125,103.806648 
	C253.217697,112.532204 240.425247,112.805435 227.127502,110.964500 
	C216.858063,109.542809 216.831360,109.697609 218.018799,99.380379 
	C218.150269,98.238235 218.395325,97.109612 218.565765,95.971420 
	C219.420471,90.263519 220.267868,84.554527 221.265732,77.852676 
	C217.162964,80.777328 214.100510,82.960388 211.038055,85.143456 
	C210.542511,85.735321 210.046967,86.327187 209.019104,86.633423 
	C205.275360,86.953979 201.961197,87.261131 198.902451,88.311806 
	C197.658386,88.739143 196.969360,90.782402 196.027802,92.090416 
	C195.952484,98.931351 195.877167,105.772285 195.230896,112.434525 
	C178.947678,104.304626 163.235443,96.353432 147.011414,88.143257 
	C147.011414,91.070175 147.011414,93.054474 147.011414,95.038780 
	C147.003586,98.765770 147.169922,102.505722 146.894241,106.212791 
	C146.796661,107.525177 145.621521,108.757431 144.087769,110.006104 
	C136.720703,110.686440 130.204193,111.386948 123.488136,112.108902 
	C122.765198,108.588539 122.157845,105.631004 121.467880,102.271225 
	C119.362717,104.110970 117.639214,105.617172 115.915710,107.123375 
M80.711060,68.918839 
	C80.767517,68.590034 80.823982,68.261223 80.975357,67.961395 
	C80.975357,67.961395 80.903900,67.892525 81.559654,67.592804 
	C88.526024,53.218601 82.815224,39.560047 67.644737,35.564713 
	C53.007458,31.709795 39.031975,34.442722 25.594320,41.436687 
	C25.594320,41.436687 25.427204,41.518734 24.789993,41.632347 
	C23.474140,42.391541 22.158285,43.150734 20.168613,44.133026 
	C18.655666,45.046333 17.142719,45.959637 15.312869,47.064247 
	C18.622841,52.652020 21.706430,57.857628 24.915232,63.274609 
	C27.306896,62.220798 29.383795,61.305683 31.800591,60.240803 
	C40.972717,80.662582 50.114868,101.017616 59.398178,121.686943 
	C62.958519,120.414955 66.046608,119.311684 69.826584,118.154366 
	C73.560425,117.789490 72.135422,115.214493 71.669365,113.390228 
	C69.315475,104.176521 66.812843,95.000809 64.855133,85.297523 
	C69.593430,80.573189 74.331726,75.848862 79.592209,70.830948 
	C79.818291,70.294968 80.044365,69.758987 80.005821,69.112564 
	C80.005821,69.112564 80.278992,69.197937 80.711060,68.918839 
M180.194733,42.796173 
	C179.763580,43.176144 179.332428,43.556118 178.304321,44.242641 
	C170.701233,50.038727 168.516663,57.842384 170.601425,66.793594 
	C172.628052,75.495171 178.874374,80.437035 187.302887,81.830269 
	C198.123627,83.618942 207.974930,80.793846 216.821411,72.917854 
	C219.123169,71.434502 219.585419,69.992630 217.117920,68.062218 
	C214.451614,65.976288 212.013657,63.598454 208.913879,60.849308 
	C207.786301,62.255005 206.768433,63.523949 205.138260,65.155624 
	C202.148438,66.406105 199.158630,67.656586 196.168808,68.907059 
	C195.907684,68.418732 195.646561,67.930412 195.385437,67.442085 
	C200.696533,61.386738 206.007629,55.331390 211.841949,48.872143 
	C214.404770,46.918301 213.754242,45.389645 211.584686,43.405933 
	C203.458832,35.976166 189.227386,36.584843 182.722824,41.635494 
	C182.722824,41.635494 182.645462,41.638729 182.086761,41.697803 
	C181.665268,42.043346 181.243759,42.388889 180.921356,42.970795 
	C180.921356,42.970795 180.792679,42.749062 180.194733,42.796173 
M204.837585,21.091690 
	C205.896744,20.421850 206.955887,19.752012 208.195267,18.968199 
	C206.121124,15.789347 204.260040,12.937029 202.066650,9.575412 
	C201.119064,10.976750 200.522217,11.859379 199.297165,13.026709 
	C195.154907,17.946087 190.641434,22.609375 187.233490,28.035320 
	C187.721848,28.504896 188.210220,28.974472 188.698578,29.444046 
	C193.848373,26.707890 198.998154,23.971731 204.837585,21.091690 
M227.242615,36.065533 
	C227.072693,36.375858 227.045761,36.698162 227.024826,37.888771 
	C226.450745,43.283634 225.876663,48.678497 225.293564,54.158123 
	C227.398773,54.969456 229.204620,55.665405 231.247849,56.452850 
	C228.992599,72.199699 226.772736,87.699562 224.527069,103.379440 
	C227.560425,103.940819 229.793823,104.542763 232.062561,104.741516 
	C242.111771,105.621872 252.031754,105.794235 260.770630,97.916344 
	C261.232605,96.375732 262.336304,94.705971 262.056335,93.314674 
	C259.519684,80.709724 263.741150,70.935204 273.838409,63.300083 
	C275.073181,62.366409 276.364868,60.483849 276.334167,59.069195 
	C276.153076,50.733410 272.598114,43.890846 265.480072,39.511150 
	C254.129288,32.527073 241.496704,30.662556 228.102005,30.948994 
	C227.941971,32.755756 227.813461,34.206665 227.688095,35.723511 
	C227.688095,35.723511 227.641342,35.770111 227.242615,36.065533 
M94.313904,66.258408 
	C88.573997,69.930305 85.173775,75.193436 83.604301,81.768799 
	C80.750671,93.724121 89.113380,104.455421 101.341324,104.199165 
	C110.767166,104.001633 117.629868,99.410507 122.746002,90.802925 
	C128.059479,80.598137 126.875931,70.919296 119.603867,65.106964 
	C112.729416,59.612434 102.174210,59.976509 94.313904,66.258408 
M304.699951,110.795502 
	C307.502686,110.408585 308.824493,109.234367 307.580109,106.179695 
	C306.785187,104.228294 306.425751,102.100197 305.861053,100.054092 
	C305.122314,97.377342 303.811096,95.954521 300.153992,97.792465 
	C296.050934,98.233902 292.261749,97.642197 288.495575,94.521362 
	C296.793823,92.204140 304.379486,90.085907 312.689941,87.980515 
	C314.010773,87.448029 315.331635,86.915550 316.584290,86.410538 
	C313.419220,72.620415 302.480103,64.951134 287.163757,65.969002 
	C277.657501,66.829109 271.704437,72.169395 268.809418,80.979820 
	C266.005127,89.514160 268.764557,96.769173 275.235229,102.431755 
	C283.406403,109.582481 293.267181,111.772667 304.699951,110.795502 
M150.501938,35.423615 
	C146.635712,40.857101 142.769470,46.290588 138.297913,52.574791 
	C137.721863,44.961018 137.242645,38.626926 136.732498,31.884153 
	C130.984207,33.629402 125.828018,35.395428 120.561401,36.723553 
	C117.035896,37.612617 116.480034,39.417046 117.618629,42.434052 
	C119.425858,42.236023 121.030792,42.060158 122.963974,41.848328 
	C123.391541,47.350288 123.629761,52.650524 124.289856,57.897690 
	C124.587105,60.260513 125.218117,62.884216 126.571419,64.758781 
	C132.359726,72.776604 132.603668,81.177177 129.754929,90.304039 
	C128.341080,94.833725 128.067719,99.719383 127.107269,105.468300 
	C131.795593,104.755493 134.860886,104.289452 138.743317,103.834312 
	C139.475098,102.431122 140.777618,101.053665 140.842224,99.620399 
	C141.163498,92.493011 141.158844,85.350922 141.835190,78.550468 
	C156.469818,85.815750 171.104446,93.081032 186.249695,100.839806 
	C187.242935,101.160751 188.236160,101.481689 189.699234,101.954453 
	C189.699234,98.925293 189.518066,96.450005 189.741714,94.011848 
	C190.076904,90.357765 189.065933,88.968910 185.062622,87.697495 
	C179.618057,85.968323 174.040771,82.871819 170.068924,78.837227 
	C166.692932,75.407898 163.355591,72.782448 158.984650,71.178505 
	C155.265045,69.813583 151.562820,68.401337 147.990631,66.329269 
	C153.829651,59.913517 159.668655,53.497772 166.140701,46.891319 
	C166.150208,45.813408 166.628555,44.278820 166.094421,43.730446 
	C162.125366,39.655651 157.955322,35.776630 153.557083,31.556664 
	C152.523880,32.986069 151.785049,34.008202 150.501938,35.423615 
M375.335846,123.620750 
	C376.285919,123.438896 377.952118,123.464996 378.074707,123.042839 
	C379.229736,119.065491 380.290283,115.040192 380.979950,110.961433 
	C381.172180,109.824516 380.381378,108.091461 379.468628,107.263184 
	C368.642334,97.438736 357.707428,87.733978 347.069031,77.349525 
	C353.786804,72.993607 360.504547,68.637695 367.871307,64.032990 
	C368.313354,62.780560 369.510773,61.084335 369.077209,60.346348 
	C365.797089,54.763290 362.196991,49.368229 358.520782,43.640293 
	C357.376068,44.688148 356.679565,45.325687 355.397583,46.283848 
	C349.629242,51.681805 343.860901,57.079762 337.791138,62.759811 
	C332.214569,53.524693 327.016541,44.916412 321.794525,36.268398 
	C316.804077,38.182747 312.249115,40.174240 307.535675,41.664459 
	C303.425354,42.963989 302.093872,44.966530 303.832947,47.768631 
	C306.664551,48.484230 309.396881,48.326340 310.392303,49.564644 
	C316.623230,57.316128 322.466614,65.379120 328.806458,73.829674 
	C327.871307,74.496422 327.125488,75.219917 326.235260,75.629906 
	C322.168976,77.502563 321.341614,80.274925 323.034088,84.415848 
	C323.933075,86.615326 323.831268,89.223839 324.201202,91.786186 
	C321.058899,92.803383 318.289246,93.699936 314.882935,94.802589 
	C317.664124,98.250504 320.144836,101.325912 322.760620,104.568787 
	C328.602295,98.229622 333.947235,92.429474 339.450104,86.457970 
	C351.627472,98.968597 363.321289,110.982430 375.335846,123.620750 
M63.390400,32.202618 
	C63.785442,32.206821 64.180489,32.211029 64.575523,32.215233 
	C64.577019,32.051304 64.589508,31.744904 64.578423,31.744049 
	C64.185341,31.713718 63.790051,31.712029 63.390400,32.202618 
z"/>
<path fill="#060166" opacity="1.000000" stroke="none" 
	d="
M1.000000,49.333332 
	C2.439532,47.736607 3.879064,46.473213 5.613947,45.075272 
	C11.498397,54.116779 17.087496,63.292839 22.854109,72.760338 
	C23.540691,72.337593 24.403933,71.956017 25.081217,71.362305 
	C27.602345,69.152275 28.860146,69.896873 30.158638,72.838051 
	C38.327042,91.340034 46.664585,109.767349 54.977093,128.970505 
	C55.013382,130.502884 55.018803,131.284088 55.024216,132.065308 
	C51.812664,133.386261 49.578663,134.196030 47.625874,129.500534 
	C40.287903,111.856293 32.328049,94.469353 24.506758,77.028366 
	C22.550488,72.666000 20.143606,75.810631 17.592133,77.316544 
	C12.242399,68.498764 6.971879,59.811558 1.350679,51.062172 
	C1.000000,50.555553 1.000000,50.111111 1.000000,49.333332 
z"/>
<path fill="#060266" opacity="1.000000" stroke="none" 
	d="
M336.362671,100.129974 
	C337.185974,98.560684 338.344238,97.010834 339.502502,95.460983 
	C339.035278,96.069054 338.568085,96.677124 338.100861,97.285194 
	C352.218323,110.444504 366.335785,123.603813 380.730225,137.245743 
	C380.671478,138.818909 380.335754,139.909454 380.000000,141.000000 
	C378.933319,141.000000 377.866669,141.000000 376.399994,141.000000 
	C375.868317,140.709442 375.804382,140.352997 375.595215,140.137741 
	C362.636932,126.800957 349.666748,113.475723 336.362671,100.129974 
z"/>
<path fill="#FFFFFF" opacity="1.000000" stroke="none" 
	d=""/>
<path fill="#080267" opacity="1.000000" stroke="none" 
	d="
M211.444000,85.245171 
	C214.100510,82.960388 217.162964,80.777328 221.265732,77.852676 
	C220.267868,84.554527 219.420471,90.263519 218.565765,95.971420 
	C218.395325,97.109612 218.150269,98.238235 218.018799,99.380379 
	C216.831360,109.697609 216.858063,109.542809 227.127502,110.964500 
	C240.425247,112.805435 253.217697,112.532204 264.466125,103.806648 
	C264.962036,103.421982 265.930420,103.646454 266.837341,103.883240 
	C261.007019,109.511322 254.612534,113.653412 246.407394,115.374275 
	C234.483093,117.875153 223.013901,116.375816 211.493195,113.672554 
	C208.343689,112.933540 209.087585,110.609367 209.386673,108.236031 
	C210.345917,100.623718 211.048401,92.979065 211.444000,85.245171 
z"/>
<path fill="#060066" opacity="1.000000" stroke="none" 
	d="
M147.384583,95.013268 
	C147.011414,93.054474 147.011414,91.070175 147.011414,88.143257 
	C163.235443,96.353432 178.947678,104.304626 194.812775,112.556290 
	C191.617401,115.323242 188.513840,115.366203 184.619110,113.323288 
	C172.469025,106.950165 160.063965,101.063202 147.384583,95.013268 
z"/>
<path fill="#080267" opacity="1.000000" stroke="none" 
	d="
M78.082016,106.361259 
	C76.041153,100.490005 73.942017,94.975182 72.488655,89.295128 
	C72.220581,88.247467 74.565414,86.531242 75.396553,85.503906 
	C78.210167,91.632263 79.813072,97.986404 83.542213,102.634766 
	C90.736252,111.602089 100.843559,111.913292 111.668671,109.019356 
	C104.307770,117.024033 87.590553,117.721741 78.082016,106.361259 
z"/>
<path fill="#0A0368" opacity="1.000000" stroke="none" 
	d="
M267.928345,106.413246 
	C269.820007,107.430946 271.720551,108.910561 273.777283,110.125816 
	C286.323212,117.538696 299.570770,119.866013 313.588806,115.056358 
	C314.669373,114.685608 315.724609,112.477859 315.722290,111.125748 
	C315.718842,109.079048 314.775360,107.033951 313.955688,103.951859 
	C317.580505,108.074120 320.520721,111.417854 323.773804,114.898460 
	C323.808502,116.121872 323.684357,117.279182 323.223694,118.281906 
	C321.743927,121.502975 320.028839,122.596970 317.936951,118.665550 
	C317.573486,117.982460 316.865723,117.482590 316.304657,116.884956 
	C307.474243,126.901360 277.828186,120.576851 267.928345,106.413246 
z"/>
<path fill="#0C0369" opacity="1.000000" stroke="none" 
	d="
M115.961891,107.543167 
	C117.639214,105.617172 119.362717,104.110970 121.467880,102.271225 
	C122.157845,105.631004 122.765198,108.588539 123.488136,112.108902 
	C130.204193,111.386948 136.720703,110.686440 143.680725,110.009750 
	C140.882385,111.094673 137.701920,112.442703 134.384872,113.152206 
	C128.881775,114.329285 123.290871,115.095802 117.174355,116.130424 
	C116.767883,113.283905 116.387970,110.623428 115.961891,107.543167 
z"/>
<path fill="#060166" opacity="1.000000" stroke="none" 
	d="
M55.419228,132.029617 
	C55.018803,131.284088 55.013382,130.502884 55.016174,129.329880 
	C56.609547,128.833542 58.277546,129.011246 59.765293,128.574677 
	C65.649895,126.847931 71.478012,124.928726 77.714897,123.054993 
	C73.544464,125.075813 69.028557,127.225067 64.412155,129.130890 
	C61.626900,130.280762 58.685486,131.052353 55.419228,132.029617 
z"/>
<path fill="#0E026A" opacity="1.000000" stroke="none" 
	d="
M196.416992,92.047943 
	C196.969360,90.782402 197.658386,88.739143 198.902451,88.311806 
	C201.961197,87.261131 205.275360,86.953979 208.722595,86.595955 
	C204.907654,88.564568 200.856918,90.285011 196.416992,92.047943 
z"/>
<path fill="#0A0368" opacity="1.000000" stroke="none" 
	d="
M266.918518,104.316383 
	C267.221466,104.496140 267.600830,104.989319 267.953674,105.815308 
	C267.616425,105.642014 267.305664,105.135910 266.918518,104.316383 
z"/>
<path fill="#FDCD32" opacity="1.000000" stroke="none" 
	d="
M79.070023,71.124527 
	C74.331726,75.848862 69.593430,80.573189 64.326973,85.671844 
	C60.627224,87.554924 61.739403,90.146782 62.327953,92.442253 
	C64.534195,101.047043 66.856133,109.622169 69.134697,118.208420 
	C66.046608,119.311684 62.958519,120.414955 59.398178,121.686943 
	C50.114868,101.017616 40.972717,80.662582 31.800591,60.240803 
	C29.383795,61.305683 27.306896,62.220798 24.915232,63.274609 
	C21.706430,57.857628 18.622841,52.652020 15.312869,47.064247 
	C17.142719,45.959637 18.655666,45.046333 20.881290,44.050056 
	C22.871712,43.150970 24.149460,42.334854 25.427204,41.518738 
	C25.427204,41.518734 25.594320,41.436687 26.057320,41.614540 
	C27.325642,41.668667 28.186268,41.687511 28.927986,41.399803 
	C39.934280,37.130501 51.194038,35.737736 62.882210,37.959206 
	C73.936180,40.060143 82.816841,50.402836 81.970917,60.575157 
	C81.767029,63.026901 81.267479,65.454063 80.903900,67.892525 
	C80.903900,67.892525 80.975357,67.961395 80.702728,68.082016 
	C80.379730,68.534401 80.329361,68.866165 80.278992,69.197937 
	C80.278992,69.197937 80.005821,69.112564 79.833549,69.257004 
	C79.464195,69.975807 79.267105,70.550171 79.070023,71.124527 
M63.491161,77.538445 
	C65.990311,75.111488 68.731636,72.883987 70.932640,70.211479 
	C74.354454,66.056641 73.856194,58.899040 70.275101,55.613159 
	C66.000252,51.690712 58.858147,51.809765 53.976921,56.141899 
	C53.671638,57.196232 52.885643,58.385082 53.137085,59.283623 
	C55.156464,66.499992 57.371578,73.661591 59.777584,81.675087 
	C61.319897,79.923782 62.167366,78.961479 63.491161,77.538445 
z"/>
<path fill="#F8C737" opacity="1.000000" stroke="none" 
	d="
M367.222290,64.281784 
	C360.504547,68.637695 353.786804,72.993607 346.610291,77.702415 
	C343.611633,79.196693 343.970673,80.253807 345.899658,81.937637 
	C356.084686,90.828117 366.189331,99.811890 376.215607,108.880791 
	C377.166687,109.741066 378.028015,111.534111 377.816406,112.690086 
	C377.177643,116.179482 375.989227,119.568253 375.015076,122.996254 
	C363.321289,110.982430 351.627472,98.968597 339.450104,86.457970 
	C333.947235,92.429474 328.602295,98.229622 322.760620,104.568787 
	C320.144836,101.325912 317.664124,98.250504 314.882935,94.802589 
	C318.289246,93.699936 321.058899,92.803383 324.201202,91.786186 
	C323.831268,89.223839 323.933075,86.615326 323.034088,84.415848 
	C321.341614,80.274925 322.168976,77.502563 326.235260,75.629906 
	C327.125488,75.219917 327.871307,74.496422 328.806458,73.829674 
	C322.466614,65.379120 316.623230,57.316128 310.392303,49.564644 
	C309.396881,48.326340 306.664551,48.484230 303.832947,47.768631 
	C302.093872,44.966530 303.425354,42.963989 307.535675,41.664459 
	C312.249115,40.174240 316.804077,38.182747 321.794525,36.268398 
	C327.016541,44.916412 332.214569,53.524693 337.791138,62.759811 
	C343.860901,57.079762 349.629242,51.681805 356.000977,46.274567 
	C360.143677,52.270786 363.682983,58.276287 367.222290,64.281784 
z"/>
<path fill="#FDCC32" opacity="1.000000" stroke="none" 
	d="
M260.103699,98.172676 
	C252.031754,105.794235 242.111771,105.621872 232.062561,104.741516 
	C229.793823,104.542763 227.560425,103.940819 224.527069,103.379440 
	C226.772736,87.699562 228.992599,72.199699 231.247849,56.452850 
	C229.204620,55.665405 227.398773,54.969456 225.293564,54.158123 
	C225.876663,48.678497 226.450745,43.283634 227.291443,37.303787 
	C227.585815,36.402573 227.613571,36.086342 227.641327,35.770111 
	C227.641342,35.770111 227.688095,35.723511 228.153381,35.802021 
	C234.997742,36.616062 241.431656,37.040840 247.743988,38.154625 
	C259.331818,40.199238 268.621674,45.104630 271.330627,58.038677 
	C271.927917,60.890396 271.298615,62.013771 269.159943,63.669327 
	C263.490417,68.058098 259.322174,73.738976 259.057648,81.132462 
	C258.855133,86.792809 259.715881,92.491203 260.103699,98.172676 
M240.693970,93.718384 
	C243.030502,92.885681 245.407883,92.151306 247.695557,91.201004 
	C253.495255,88.791794 257.211090,83.009613 256.522583,77.647964 
	C255.835968,72.301125 250.671722,67.818192 244.254944,67.107658 
	C242.953552,66.963554 241.615494,67.150627 239.564835,67.346008 
	C238.470352,68.501747 236.592789,69.545403 236.408707,70.831459 
	C235.228607,79.075859 234.420105,87.373459 233.371094,96.706673 
	C236.190720,95.541069 238.095581,94.753616 240.693970,93.718384 
z"/>
<path fill="#FAC936" opacity="1.000000" stroke="none" 
	d="
M165.507660,47.082020 
	C159.668655,53.497772 153.829651,59.913517 147.644791,66.808914 
	C146.686981,68.125572 146.075012,68.962585 145.243652,70.099655 
	C147.455734,70.867531 149.262970,71.267281 150.852097,72.088898 
	C155.748535,74.620468 161.521194,76.391350 165.160934,80.179886 
	C169.576462,84.775925 174.038330,88.561760 180.052551,90.418480 
	C186.648407,92.454758 186.980682,92.916237 185.739090,100.346313 
	C171.104446,93.081032 156.469818,85.815750 141.172943,78.438705 
	C139.687515,80.183182 138.246140,82.008972 138.152939,83.901176 
	C137.826385,90.529556 137.964508,97.180824 137.926193,103.823402 
	C134.860886,104.289452 131.795593,104.755493 127.107269,105.468300 
	C128.067719,99.719383 128.341080,94.833725 129.754929,90.304039 
	C132.603668,81.177177 132.359726,72.776604 126.571419,64.758781 
	C125.218117,62.884216 124.587105,60.260513 124.289856,57.897690 
	C123.629761,52.650524 123.391541,47.350288 122.963974,41.848328 
	C121.030792,42.060158 119.425858,42.236023 117.618629,42.434052 
	C116.480034,39.417046 117.035896,37.612617 120.561401,36.723553 
	C125.828018,35.395428 130.984207,33.629402 136.732498,31.884153 
	C137.242645,38.626926 137.721863,44.961018 138.297913,52.574791 
	C142.769470,46.290588 146.635712,40.857101 151.073364,35.363914 
	C153.090347,36.682339 154.465622,38.144737 155.996170,39.420925 
	C159.122452,42.027657 162.332260,44.534203 165.507660,47.082020 
z"/>
<path fill="#FBCA34" opacity="1.000000" stroke="none" 
	d="
M216.222122,73.241478 
	C207.974930,80.793846 198.123627,83.618942 187.302887,81.830269 
	C178.874374,80.437035 172.628052,75.495171 170.601425,66.793594 
	C168.516663,57.842384 170.701233,50.038727 178.916809,44.084206 
	C179.950409,43.533535 180.371552,43.141300 180.792679,42.749062 
	C180.792679,42.749062 180.921356,42.970795 181.192719,42.909840 
	C181.857880,42.445496 182.251663,42.042110 182.645462,41.638725 
	C182.645462,41.638729 182.722824,41.635494 183.182968,41.743462 
	C184.920959,41.656590 186.199585,41.466602 187.476547,41.266129 
	C196.813873,39.800240 205.031052,41.665749 211.318741,49.276047 
	C206.007629,55.331390 200.696533,61.386738 195.385437,67.442085 
	C195.646561,67.930412 195.907684,68.418732 196.168808,68.907059 
	C199.158630,67.656586 202.148438,66.406105 205.808487,65.045395 
	C209.726517,67.703941 212.974319,70.472710 216.222122,73.241478 
M182.007797,53.102913 
	C182.007797,53.102913 182.230042,53.202820 181.493225,53.346428 
	C178.112900,57.964176 178.080322,64.031067 181.278763,67.751556 
	C182.886536,69.621758 184.349182,70.036949 186.647049,67.725029 
	C191.583344,62.174603 196.519653,56.624180 201.433716,51.098751 
	C195.210220,45.056633 189.874603,45.432144 182.549057,52.236027 
	C182.442764,52.553734 182.336472,52.871437 182.007797,53.102913 
z"/>
<path fill="#FBCA34" opacity="1.000000" stroke="none" 
	d="
M311.965118,87.967667 
	C304.379486,90.085907 296.793823,92.204140 288.495575,94.521362 
	C292.261749,97.642197 296.050934,98.233902 300.630066,98.221794 
	C302.048248,102.697594 302.990326,106.744064 303.932404,110.790543 
	C293.267181,111.772667 283.406403,109.582481 275.235229,102.431755 
	C268.764557,96.769173 266.005127,89.514160 268.809418,80.979820 
	C271.704437,72.169395 277.657501,66.829109 287.848633,66.247787 
	C289.498871,66.674423 290.460999,66.848763 291.430054,66.966042 
	C300.798767,68.099762 313.042542,77.844887 311.965118,87.967667 
M284.983704,76.005234 
	C284.983704,76.005234 284.936768,75.937218 284.195679,75.916168 
	C278.794281,77.037193 277.724609,81.324341 277.071655,85.820641 
	C276.624573,88.899078 277.788971,90.584572 281.945831,89.901154 
	C288.959808,87.834236 295.973785,85.767311 302.991028,83.699417 
	C300.194733,75.059326 295.142487,72.660881 285.739990,75.225227 
	C285.478149,75.459854 285.216309,75.694481 284.983704,76.005234 
z"/>
<path fill="#FACA35" opacity="1.000000" stroke="none" 
	d="
M122.131302,91.192390 
	C117.629868,99.410507 110.767166,104.001633 101.341324,104.199165 
	C89.113380,104.455421 80.750671,93.724121 83.604301,81.768799 
	C85.173775,75.193436 88.573997,69.930305 95.017105,66.113182 
	C98.461121,65.921867 101.201935,65.875778 103.633667,65.977798 
	C101.216560,67.751678 99.108536,69.377441 96.767502,71.124138 
	C96.447098,71.565765 96.359711,71.886452 96.137390,72.152283 
	C96.002464,72.097412 96.271370,72.220245 95.932098,72.341278 
	C91.703033,78.893631 92.288902,82.982765 97.691612,87.111000 
	C101.752518,90.213951 107.264160,89.680008 111.214195,85.652847 
	C117.597427,81.041740 118.782951,77.644333 116.122849,72.221725 
	C113.018616,77.765579 109.640640,79.243637 105.763718,76.754433 
	C102.485741,74.649773 102.297493,71.804443 105.512405,68.046158 
	C107.076294,64.649040 109.265640,64.315125 112.358574,65.608124 
	C118.658096,68.241615 123.061493,74.444366 122.982979,81.412025 
	C122.946205,84.674934 122.430145,87.932434 122.131302,91.192390 
z"/>
<path fill="#CB9865" opacity="1.000000" stroke="none" 
	d="
M260.437164,98.044510 
	C259.715881,92.491203 258.855133,86.792809 259.057648,81.132462 
	C259.322174,73.738976 263.490417,68.058098 269.159943,63.669327 
	C271.298615,62.013771 271.927917,60.890396 271.330627,58.038677 
	C268.621674,45.104630 259.331818,40.199238 247.743988,38.154625 
	C241.431656,37.040840 234.997742,36.616062 228.151810,35.769051 
	C227.813461,34.206665 227.941971,32.755756 228.102005,30.948994 
	C241.496704,30.662556 254.129288,32.527073 265.480072,39.511150 
	C272.598114,43.890846 276.153076,50.733410 276.334167,59.069195 
	C276.364868,60.483849 275.073181,62.366409 273.838409,63.300083 
	C263.741150,70.935204 259.519684,80.709724 262.056335,93.314674 
	C262.336304,94.705971 261.232605,96.375732 260.437164,98.044510 
z"/>
<path fill="#C99666" opacity="1.000000" stroke="none" 
	d="
M81.231781,67.742661 
	C81.267479,65.454063 81.767029,63.026901 81.970917,60.575157 
	C82.816841,50.402836 73.936180,40.060143 62.882210,37.959206 
	C51.194038,35.737736 39.934280,37.130501 28.927986,41.399803 
	C28.186268,41.687511 27.325642,41.668667 26.150318,41.610550 
	C39.031975,34.442722 53.007458,31.709795 67.644737,35.564713 
	C82.815224,39.560047 88.526024,53.218601 81.231781,67.742661 
z"/>
<path fill="#C99666" opacity="1.000000" stroke="none" 
	d="
M185.994385,100.593056 
	C186.980682,92.916237 186.648407,92.454758 180.052551,90.418480 
	C174.038330,88.561760 169.576462,84.775925 165.160934,80.179886 
	C161.521194,76.391350 155.748535,74.620468 150.852097,72.088898 
	C149.262970,71.267281 147.455734,70.867531 145.243652,70.099655 
	C146.075012,68.962585 146.686981,68.125572 147.575928,67.149300 
	C151.562820,68.401337 155.265045,69.813583 158.984650,71.178505 
	C163.355591,72.782448 166.692932,75.407898 170.068924,78.837227 
	C174.040771,82.871819 179.618057,85.968323 185.062622,87.697495 
	C189.065933,88.968910 190.076904,90.357765 189.741714,94.011848 
	C189.518066,96.450005 189.699234,98.925293 189.699234,101.954453 
	C188.236160,101.481689 187.242935,101.160751 185.994385,100.593056 
z"/>
<path fill="#CA9765" opacity="1.000000" stroke="none" 
	d="
M375.175476,123.308502 
	C375.989227,119.568253 377.177643,116.179482 377.816406,112.690086 
	C378.028015,111.534111 377.166687,109.741066 376.215607,108.880791 
	C366.189331,99.811890 356.084686,90.828117 345.899658,81.937637 
	C343.970673,80.253807 343.611633,79.196693 346.476257,78.026550 
	C357.707428,87.733978 368.642334,97.438736 379.468628,107.263184 
	C380.381378,108.091461 381.172180,109.824516 380.979950,110.961433 
	C380.290283,115.040192 379.229736,119.065491 378.074707,123.042839 
	C377.952118,123.464996 376.285919,123.438896 375.175476,123.308502 
z"/>
<path fill="#080267" opacity="1.000000" stroke="none" 
	d="
M295.345703,58.987816 
	C294.672150,55.273232 294.584900,51.541782 294.060730,47.872761 
	C293.587433,44.560162 294.812500,42.213543 297.571930,40.085861 
	C298.266876,42.122341 298.719055,44.316418 299.008453,46.531769 
	C299.363586,49.250404 299.582672,51.986816 299.902435,55.126499 
	C302.730957,54.430202 304.761780,53.930275 306.946228,53.392532 
	C311.010284,59.792210 317.082703,64.694939 319.196686,72.341393 
	C311.646210,67.147125 306.473602,58.224373 295.345703,58.987816 
z"/>
<path fill="#C99666" opacity="1.000000" stroke="none" 
	d="
M103.942741,65.829689 
	C101.201935,65.875778 98.461121,65.921867 95.315491,65.963318 
	C102.174210,59.976509 112.729416,59.612434 119.603867,65.106964 
	C126.875931,70.919296 128.059479,80.598137 122.438660,90.997658 
	C122.430145,87.932434 122.946205,84.674934 122.982979,81.412025 
	C123.061493,74.444366 118.658096,68.241615 112.358574,65.608124 
	C109.265640,64.315125 107.076294,64.649040 105.437355,67.706825 
	C104.674660,66.886475 104.308701,66.358078 103.942741,65.829689 
z"/>
<path fill="#060169" opacity="1.000000" stroke="none" 
	d="
M111.273987,56.117874 
	C111.457405,49.355820 106.846458,55.549435 104.995140,52.906303 
	C104.995140,48.389454 104.577415,42.952301 105.234871,37.648426 
	C105.448250,35.927036 108.475517,34.554455 110.598297,32.976166 
	C111.140572,38.772533 111.300255,44.615067 111.468330,50.764233 
	C113.873474,50.635288 115.230324,50.562546 116.812599,50.477718 
	C116.993347,52.597446 117.157227,54.519348 117.381142,57.145229 
	C115.316765,56.829353 113.474281,56.547432 111.273987,56.117874 
z"/>
<path fill="#070367" opacity="1.000000" stroke="none" 
	d="
M212.055450,35.196152 
	C209.542847,27.306637 211.167999,25.396343 221.552979,24.091806 
	C221.186615,29.838573 220.421326,35.512497 219.590271,41.674038 
	C216.934952,39.461769 214.565369,37.487564 212.055450,35.196152 
z"/>
<path fill="#C99666" opacity="1.000000" stroke="none" 
	d="
M69.480637,118.181389 
	C66.856133,109.622169 64.534195,101.047043 62.327953,92.442253 
	C61.739403,90.146782 60.627224,87.554924 64.080597,85.928970 
	C66.812843,95.000809 69.315475,104.176521 71.669365,113.390228 
	C72.135422,115.214493 73.560425,117.789490 69.480637,118.181389 
z"/>
<path fill="#CB9865" opacity="1.000000" stroke="none" 
	d="
M312.327515,87.974091 
	C313.042542,77.844887 300.798767,68.099762 291.430054,66.966042 
	C290.460999,66.848763 289.498871,66.674423 288.253723,66.263626 
	C302.480103,64.951134 313.419220,72.620415 316.584290,86.410538 
	C315.331635,86.915550 314.010773,87.448029 312.327515,87.974091 
z"/>
<path fill="#FACA34" opacity="1.000000" stroke="none" 
	d="
M204.147949,21.235575 
	C198.998154,23.971731 193.848373,26.707890 188.698578,29.444046 
	C188.210220,28.974472 187.721848,28.504896 187.233490,28.035320 
	C190.641434,22.609375 195.154907,17.946087 199.668488,13.251325 
	C201.409195,16.062485 202.778564,18.649031 204.147949,21.235575 
z"/>
<path fill="#C99665" opacity="1.000000" stroke="none" 
	d="
M211.580353,49.074097 
	C205.031052,41.665749 196.813873,39.800240 187.476547,41.266129 
	C186.199585,41.466602 184.920959,41.656590 183.213089,41.719131 
	C189.227386,36.584843 203.458832,35.976166 211.584686,43.405933 
	C213.754242,45.389645 214.404770,46.918301 211.580353,49.074097 
z"/>
<path fill="#0A059B" opacity="1.000000" stroke="none" 
	d="
M172.970932,30.929138 
	C180.463531,22.315283 187.932526,13.680635 195.475922,5.111500 
	C196.527588,3.916812 197.945465,3.044479 199.536118,1.971533 
	C198.702393,4.003635 197.803360,6.316621 196.301056,8.129785 
	C190.650101,14.950042 184.802582,21.607428 178.625336,28.699799 
	C176.471634,29.692228 174.721283,30.310684 172.970932,30.929138 
z"/>
<path fill="#0A0368" opacity="1.000000" stroke="none" 
	d="
M338.143372,49.234787 
	C342.515839,44.911175 346.880585,40.735592 351.574097,36.969711 
	C353.385468,35.516327 355.943146,34.993107 358.555725,34.100128 
	C353.130951,39.447037 347.353485,44.788425 341.419403,49.949806 
	C340.887756,50.412235 339.341766,49.708515 338.143372,49.234787 
z"/>
<path fill="#C49367" opacity="1.000000" stroke="none" 
	d="
M165.824188,46.986668 
	C162.332260,44.534203 159.122452,42.027657 155.996170,39.420925 
	C154.465622,38.144737 153.090347,36.682339 151.345520,35.167274 
	C151.785049,34.008202 152.523880,32.986069 153.557083,31.556664 
	C157.955322,35.776630 162.125366,39.655651 166.094421,43.730446 
	C166.628555,44.278820 166.150208,45.813408 165.824188,46.986668 
z"/>
<path fill="#C19169" opacity="1.000000" stroke="none" 
	d="
M138.334747,103.828857 
	C137.964508,97.180824 137.826385,90.529556 138.152939,83.901176 
	C138.246140,82.008972 139.687515,80.183182 140.889816,78.270477 
	C141.158844,85.350922 141.163498,92.493011 140.842224,99.620399 
	C140.777618,101.053665 139.475098,102.431122 138.334747,103.828857 
z"/>
<path fill="#CA9765" opacity="1.000000" stroke="none" 
	d="
M367.546814,64.157394 
	C363.682983,58.276287 360.143677,52.270786 356.293701,46.114258 
	C356.679565,45.325687 357.376068,44.688148 358.520782,43.640293 
	C362.196991,49.368229 365.797089,54.763290 369.077209,60.346348 
	C369.510773,61.084335 368.313354,62.780560 367.546814,64.157394 
z"/>
<path fill="#C99666" opacity="1.000000" stroke="none" 
	d="
M216.521759,73.079666 
	C212.974319,70.472710 209.726517,67.703941 206.114624,64.864029 
	C206.768433,63.523949 207.786301,62.255005 208.913879,60.849308 
	C212.013657,63.598454 214.451614,65.976288 217.117920,68.062218 
	C219.585419,69.992630 219.123169,71.434502 216.521759,73.079666 
z"/>
<path fill="#C89566" opacity="1.000000" stroke="none" 
	d="
M304.316162,110.793022 
	C302.990326,106.744064 302.048248,102.697594 301.054657,98.259949 
	C303.811096,95.954521 305.122314,97.377342 305.861053,100.054092 
	C306.425751,102.100197 306.785187,104.228294 307.580109,106.179695 
	C308.824493,109.234367 307.502686,110.408585 304.316162,110.793022 
z"/>
<path fill="#C89566" opacity="1.000000" stroke="none" 
	d="
M204.492767,21.163631 
	C202.778564,18.649031 201.409195,16.062485 199.982605,13.108974 
	C200.522217,11.859379 201.119064,10.976750 202.066650,9.575412 
	C204.260040,12.937029 206.121124,15.789347 208.195267,18.968199 
	C206.955887,19.752012 205.896744,20.421850 204.492767,21.163631 
z"/>
<path fill="#050066" opacity="1.000000" stroke="none" 
	d="
M172.662384,31.070158 
	C174.721283,30.310684 176.471634,29.692228 178.569489,29.046791 
	C179.761627,30.559439 180.606262,32.099068 181.663483,34.026196 
	C180.105804,34.958721 178.467224,35.939686 176.492371,36.937645 
	C174.888687,35.040154 173.621246,33.125664 172.662384,31.070158 
z"/>
<path fill="#06049A" opacity="1.000000" stroke="none" 
	d="
M144.830399,25.500759 
	C146.086426,24.449196 147.159668,23.738132 148.557831,22.972862 
	C147.783539,26.366497 146.684296,29.814341 145.585052,33.262184 
	C145.026932,33.144157 144.468811,33.026131 143.910690,32.908104 
	C144.156326,30.552486 144.401962,28.196873 144.830399,25.500759 
z"/>
<path fill="#363399" opacity="1.000000" stroke="none" 
	d="
M34.037613,31.260838 
	C34.986858,30.603678 36.011013,30.325174 37.315155,30.095024 
	C37.364616,30.989653 37.134090,31.835926 36.903561,32.682198 
	C35.973217,32.334629 35.042870,31.987062 34.037613,31.260838 
z"/>
<path fill="#C99666" opacity="1.000000" stroke="none" 
	d="
M25.108601,41.575542 
	C24.149460,42.334854 22.871712,43.150970 21.218197,43.938507 
	C22.158285,43.150734 23.474140,42.391541 25.108601,41.575542 
z"/>
<path fill="#363399" opacity="1.000000" stroke="none" 
	d="
M21.153187,36.165260 
	C21.730267,35.589409 22.503777,35.286728 23.617046,34.932861 
	C23.087742,35.400597 22.218678,35.919514 21.153187,36.165260 
z"/>
<path fill="#363399" opacity="1.000000" stroke="none" 
	d="
M42.139091,29.158939 
	C42.744560,28.602892 43.531803,28.312683 44.659615,28.093868 
	C44.107079,28.585102 43.213974,29.004940 42.139091,29.158939 
z"/>
<path fill="#363399" opacity="1.000000" stroke="none" 
	d="
M63.392735,31.954468 
	C63.790051,31.712029 64.185341,31.713718 64.578423,31.744049 
	C64.589508,31.744904 64.577019,32.051304 64.575531,32.215233 
	C64.180489,32.211029 63.785442,32.206821 63.392735,31.954468 
z"/>
<path fill="#C99665" opacity="1.000000" stroke="none" 
	d="
M182.366119,41.668262 
	C182.251663,42.042110 181.857880,42.445496 181.143188,42.791656 
	C181.243759,42.388889 181.665268,42.043346 182.366119,41.668262 
z"/>
<path fill="#C99665" opacity="1.000000" stroke="none" 
	d="
M180.493713,42.772617 
	C180.371552,43.141300 179.950409,43.533535 179.215271,43.930931 
	C179.332428,43.556118 179.763580,43.176144 180.493713,42.772617 
z"/>
<path fill="#C99666" opacity="1.000000" stroke="none" 
	d="
M79.331116,70.977737 
	C79.267105,70.550171 79.464195,69.975807 79.965866,69.312233 
	C80.044365,69.758987 79.818291,70.294968 79.331116,70.977737 
z"/>
<path fill="#CB9865" opacity="1.000000" stroke="none" 
	d="
M227.441971,35.917824 
	C227.613571,36.086342 227.585815,36.402573 227.359940,36.875626 
	C227.045761,36.698162 227.072693,36.375858 227.441971,35.917824 
z"/>
<path fill="#363399" opacity="1.000000" stroke="none" 
	d="
M38.052132,29.952427 
	C38.019897,29.732920 38.224060,29.431881 38.704865,29.152077 
	C38.829006,29.483789 38.598011,29.716316 38.052132,29.952427 
z"/>
<path fill="#363399" opacity="1.000000" stroke="none" 
	d="
M67.151642,28.364723 
	C67.322937,28.270012 67.627602,28.367474 68.023384,28.712944 
	C67.792931,28.918768 67.516441,28.784084 67.151642,28.364723 
z"/>
<path fill="#C99666" opacity="1.000000" stroke="none" 
	d="
M80.495026,69.058388 
	C80.329361,68.866165 80.379730,68.534401 80.655266,68.067520 
	C80.823982,68.261223 80.767517,68.590034 80.495026,69.058388 
z"/>
<path fill="#373399" opacity="1.000000" stroke="none" 
	d="
M54.653229,55.873554 
	C58.858147,51.809765 66.000252,51.690712 70.275101,55.613159 
	C73.856194,58.899040 74.354454,66.056641 70.932640,70.211479 
	C68.731636,72.883987 65.990311,75.111488 62.909832,77.645546 
	C61.607368,76.106552 60.760433,74.502899 60.188129,72.806595 
	C58.289886,67.180222 56.490524,61.520489 54.653229,55.873554 
M65.878716,58.526386 
	C64.397408,58.380833 62.916096,58.235279 60.574802,58.005222 
	C62.636444,61.933258 64.178482,64.871292 65.812904,67.985352 
	C68.685081,64.516296 68.746422,63.027874 65.878716,58.526386 
z"/>
<path fill="#CA9765" opacity="1.000000" stroke="none" 
	d="
M54.315079,56.007729 
	C56.490524,61.520489 58.289886,67.180222 60.188129,72.806595 
	C60.760433,74.502899 61.607368,76.106552 62.671669,77.875916 
	C62.167366,78.961479 61.319897,79.923782 59.777584,81.675087 
	C57.371578,73.661591 55.156464,66.499992 53.137085,59.283623 
	C52.885643,58.385082 53.671638,57.196232 54.315079,56.007729 
z"/>
<path fill="#373398" opacity="1.000000" stroke="none" 
	d="
M240.294342,67.185028 
	C241.615494,67.150627 242.953552,66.963554 244.254944,67.107658 
	C250.671722,67.818192 255.835968,72.301125 256.522583,77.647964 
	C257.211090,83.009613 253.495255,88.791794 247.695557,91.201004 
	C245.407883,92.151306 243.030502,92.885681 239.942062,93.813324 
	C238.563034,92.811234 237.303436,91.648598 237.409332,90.627609 
	C238.221497,82.797905 239.299149,74.995743 240.294342,67.185028 
M248.634552,83.938736 
	C252.304642,78.398941 251.786880,76.513603 245.090240,73.165482 
	C245.090240,76.836716 244.998093,80.208549 245.223114,83.559074 
	C245.247437,83.921257 247.109818,84.159988 248.634552,83.938736 
z"/>
<path fill="#CB9765" opacity="1.000000" stroke="none" 
	d="
M239.929581,67.265518 
	C239.299149,74.995743 238.221497,82.797905 237.409332,90.627609 
	C237.303436,91.648598 238.563034,92.811234 239.595306,93.937210 
	C238.095581,94.753616 236.190720,95.541069 233.371094,96.706673 
	C234.420105,87.373459 235.228607,79.075859 236.408707,70.831459 
	C236.592789,69.545403 238.470352,68.501747 239.929581,67.265518 
z"/>
<path fill="#373397" opacity="1.000000" stroke="none" 
	d="
M183.016998,51.994484 
	C189.874603,45.432144 195.210220,45.056633 201.433716,51.098751 
	C196.519653,56.624180 191.583344,62.174603 186.115356,67.562424 
	C180.979828,63.490944 181.383392,58.399216 182.230042,53.202820 
	C182.230042,53.202820 182.007797,53.102913 182.350311,53.031437 
	C182.800888,52.638138 182.908951,52.316311 183.016998,51.994484 
M191.596298,55.937477 
	C192.116135,54.780449 192.635971,53.623417 193.494446,51.712635 
	C185.391647,55.029091 185.391647,55.029091 186.700104,61.877907 
	C188.254745,59.935173 189.652756,58.188164 191.596298,55.937477 
z"/>
<path fill="#C39268" opacity="1.000000" stroke="none" 
	d="
M181.861633,53.274624 
	C181.383392,58.399216 180.979828,63.490944 185.801102,67.671860 
	C184.349182,70.036949 182.886536,69.621758 181.278763,67.751556 
	C178.080322,64.031067 178.112900,57.964176 181.861633,53.274624 
z"/>
<path fill="#C39268" opacity="1.000000" stroke="none" 
	d="
M182.783020,52.115257 
	C182.908951,52.316311 182.800888,52.638138 182.461502,53.074554 
	C182.336472,52.871437 182.442764,52.553734 182.783020,52.115257 
z"/>
<path fill="#383397" opacity="1.000000" stroke="none" 
	d="
M286.287842,75.278236 
	C295.142487,72.660881 300.194733,75.059326 302.991028,83.699417 
	C295.973785,85.767311 288.959808,87.834236 281.487183,89.516998 
	C279.488464,83.892319 281.627289,79.741409 284.936768,75.937218 
	C284.936768,75.937218 284.983704,76.005234 285.237732,75.981285 
	C285.757111,75.730972 286.022461,75.504601 286.287842,75.278236 
M288.121643,79.376205 
	C286.974030,80.632545 285.826385,81.888885 284.678772,83.145226 
	C284.921112,83.540054 285.163483,83.934883 285.405823,84.329712 
	C288.234100,83.660049 291.062378,82.990379 293.890656,82.320717 
	C293.917938,81.788361 293.945221,81.256004 293.972534,80.723648 
	C292.252045,80.165657 290.531555,79.607658 288.121643,79.376205 
z"/>
<path fill="#C79466" opacity="1.000000" stroke="none" 
	d="
M284.566223,75.926697 
	C281.627289,79.741409 279.488464,83.892319 281.110291,89.495949 
	C277.788971,90.584572 276.624573,88.899078 277.071655,85.820641 
	C277.724609,81.324341 278.794281,77.037193 284.566223,75.926697 
z"/>
<path fill="#C79466" opacity="1.000000" stroke="none" 
	d="
M286.013916,75.251732 
	C286.022461,75.504601 285.757111,75.730972 285.223083,75.943222 
	C285.216309,75.694481 285.478149,75.459854 286.013916,75.251732 
z"/>
<path fill="#383498" opacity="1.000000" stroke="none" 
	d="
M103.633667,65.977798 
	C104.308701,66.358078 104.674660,66.886475 105.115677,67.754196 
	C102.297493,71.804443 102.485741,74.649773 105.763718,76.754433 
	C109.640640,79.243637 113.018616,77.765579 116.122849,72.221725 
	C118.782951,77.644333 117.597427,81.041740 110.780441,85.668594 
	C99.521950,86.465057 95.395264,82.384010 96.271370,72.220245 
	C96.271370,72.220245 96.002464,72.097412 96.351547,72.022270 
	C96.800591,71.632484 96.900551,71.317848 97.000511,71.003204 
	C99.108536,69.377441 101.216560,67.751678 103.633667,65.977798 
z"/>
<path fill="#CB9765" opacity="1.000000" stroke="none" 
	d="
M95.932098,72.341278 
	C95.395264,82.384010 99.521950,86.465057 110.497307,85.844162 
	C107.264160,89.680008 101.752518,90.213951 97.691612,87.111000 
	C92.288902,82.982765 91.703033,78.893631 95.932098,72.341278 
z"/>
<path fill="#CB9765" opacity="1.000000" stroke="none" 
	d="
M96.767502,71.124138 
	C96.900551,71.317848 96.800591,71.632484 96.486473,72.077133 
	C96.359711,71.886452 96.447098,71.565765 96.767502,71.124138 
z"/>
<path fill="#0E0268" opacity="1.000000" stroke="none" 
	d="
M66.190964,58.778881 
	C68.746422,63.027874 68.685081,64.516296 65.812904,67.985352 
	C64.178482,64.871292 62.636444,61.933258 60.574802,58.005222 
	C62.916096,58.235279 64.397408,58.380833 66.190964,58.778881 
z"/>
<path fill="#16056B" opacity="1.000000" stroke="none" 
	d="
M248.377075,84.197357 
	C247.109818,84.159988 245.247437,83.921257 245.223114,83.559074 
	C244.998093,80.208549 245.090240,76.836716 245.090240,73.165482 
	C251.786880,76.513603 252.304642,78.398941 248.377075,84.197357 
z"/>
</svg>