<svg xmlns="http://www.w3.org/2000/svg" xmlns:xlink="http://www.w3.org/1999/xlink" version="1.1" id="Layer_1" x="0px" y="0px" width="100%" viewBox="0 0 499 448" enable-background="new 0 0 499 448" xml:space="preserve">
    <path fill="rgba(255,255,255, 0.3)" opacity="1.000000" stroke="none" d=" M173.404022,26.345016   C239.593216,1.881517 303.014801,7.743082 362.097290,44.969723   C420.111206,81.523071 450.754089,136.284317 459.508911,204.308762   C423.100342,204.308762 386.735016,204.308762 350.343445,204.308762   C334.491119,147.051636 285.022858,122.395386 242.602997,124.926987   C197.235672,127.634499 158.662674,157.985077 146.725937,204.463531   C111.478188,204.463531 76.133621,204.463531 39.376747,204.463531   C41.908737,191.879654 43.886669,179.801651 46.814362,167.958450   C53.265381,141.862518 65.081184,118.157547 81.074921,96.676743   C91.408791,82.797585 103.330345,70.315025 116.851952,59.305191   C133.923447,45.404896 152.760086,34.761013 173.404022,26.345016  z"/>
    <path fill="rgba(255,255,255, 0.3)" opacity="1.000000" stroke="none" d=" M138.792877,247.396210   C145.328827,246.171890 146.597839,249.417572 148.032883,254.767166   C153.939728,276.787262 166.400482,294.614075 184.370010,308.734680   C206.965042,326.490051 232.912231,332.863800 260.809570,329.609558   C295.059174,325.614380 321.624359,308.460144 338.571930,278.024689   C343.356964,269.431488 346.487946,259.866455 349.844025,250.554840   C351.079132,247.127899 353.267395,247.426956 355.670288,247.417892   C368.666779,247.368805 381.663574,247.395508 394.660248,247.395950   C413.655396,247.396591 432.650574,247.397110 451.645721,247.397690   C453.435272,247.397736 455.224792,247.397690 457.833344,247.397690   C452.852386,285.439636 439.111023,319.262878 416.166626,348.861938   C377.719696,398.459717 326.002289,426.943542 264.112549,431.048248   C151.887848,438.491394 55.126644,357.227783 41.458595,247.396057   C73.810440,247.396057 106.065483,247.396057 138.792877,247.396210  z"/>
    <path fill="rgba(255,255,255, 0.3)" opacity="1.000000" stroke="none" d=" M316.461914,270.433350   C307.949280,281.769867 298.254059,291.271881 285.539429,297.089752   C264.731567,306.610840 243.376053,307.963318 221.430481,301.141846   C204.003601,295.725006 190.510361,284.990021 180.300079,270.340088   C160.490540,241.916962 162.658722,203.885544 185.835297,178.044907   C205.878540,155.697769 231.177277,146.250839 261.122009,150.866592   C288.599609,155.102036 309.349152,169.560806 321.858856,194.321823   C331.919037,214.234360 332.765930,235.202362 323.993256,256.064545   C321.949951,260.923676 319.134064,265.457886 316.461914,270.433350  z"/>
</svg>
