<svg xmlns="http://www.w3.org/2000/svg" xmlns:xlink="http://www.w3.org/1999/xlink" xmlns:serif="http://www.serif.com/" width="100%" height="100%" viewBox="0 0 5556 5555" version="1.1" xml:space="preserve" style="fill-rule:evenodd;clip-rule:evenodd;stroke-linejoin:round;stroke-miterlimit:2;"><g id="Layer_x0020_1"><g id="_1473324886368"><path id="Line" d="M2792.46,447.5c1227.33,0 2234.17,941.667 2336.25,2141.83l-1459.75,0c-86.875,-412.75 -452.916,-723.375 -891.75,-723.375c-438.791,0 -804.791,310.667 -891.708,723.375l-1429.33,0c103.166,-1200.21 1110.04,-2141.83 2336.25,-2141.83l0.041,0Zm487.667,2141.83c21.708,58.625 33.667,121.625 33.667,187.875l1.083,0c0,66.25 -11.958,129.25 -33.667,187.875c-76,204.209 -272.625,348.667 -502.875,348.667c-230.25,0 -426.833,-145.542 -502.875,-348.667c-22.313,-60.121 -33.714,-123.746 -33.666,-187.875l-1.084,0c0,-66.25 11.959,-129.25 33.667,-187.875c76,-204.208 272.625,-348.666 502.875,-348.666c230.25,-0 426.833,145.541 502.875,348.666Zm-518.083,2518.71c-1227.33,-0 -2234.17,-941.667 -2336.25,-2141.83l1459.75,0c86.875,412.709 452.916,723.375 891.708,723.375c438.792,0 804.833,-310.666 891.75,-723.375l1430.42,0c-103.167,1199.08 -1110.04,2141.83 -2337.33,2141.83l-0.041,-0Zm15.208,-5108.04c-1533.62,0 -2777.25,1243.58 -2777.25,2777.25c-0,1533.62 1243.62,2777.25 2777.25,2777.25c1533.62,0 2778.33,-1242.54 2778.33,-2777.25c0,-1534.71 -1243.62,-2777.25 -2778.33,-2777.25Z" style="fill:#dfe7f2;fill-rule:nonzero;"/></g></g></svg>